<svg width="385" height="385" viewBox="0 0 385 385" fill="none" xmlns="http://www.w3.org/2000/svg">
<g clip-path="url(#clip0_738_4110)">
<path d="M263.25 384.75C216.25 384.75 169.25 384.75 122.25 384.75C121.65 384.6 121.05 384.39 120.44 384.3C99.79 381.18 82.45 371.86 68.4 356.45C59.24 346.41 52.76 334.82 49.33 321.68C48.3 317.75 46.51 316.32 42.59 316.73C39.75 317.03 36.86 316.73 33.99 316.79C28.88 316.89 24.11 315.62 19.56 313.41C9.42 308.49 3.7 300.08 0.75 289.5C0.75 270 0.75 250.5 0.75 231C3.7 220.22 9.58 211.69 19.96 206.96C23.02 205.57 23.78 203.71 23.76 200.6C23.65 180.61 23.59 160.61 23.8 140.62C23.84 136.55 22.54 134.49 18.92 132.59C4.26 124.89 -2.43 107.51 2.85 91.89C8.14 76.25 23.95 66.54 40.25 68.92C54.8 71.05 66.42 82.51 68.98 97.24C71.43 111.34 64.3 126.11 51.31 132.72C47.68 134.57 46.67 136.71 46.7 140.53C46.87 159.9 46.76 179.27 46.81 198.63C46.81 200.04 46.25 201.61 47.58 203.04C48.92 201.96 48.92 200.39 49.33 199.05C57.52 172.33 74.48 153.48 100.13 142.44C113.66 136.62 127.92 135.72 142.4 136.18C147.34 136.34 147.44 136.11 147.45 131.17C147.46 103.8 147.48 76.44 147.44 49.07C147.42 36.47 151.92 25.67 160.23 16.36C167.76 7.93 177.4 3.26 188.24 0.75C240.24 0.75 292.24 0.75 344.24 0.75C352.41 2.74 360.08 5.78 366.72 11.13C376.45 18.97 382 29.25 384.74 41.25C384.74 74.5 384.74 107.75 384.74 141C384.31 142.56 383.9 144.13 383.43 145.69C378.2 163.02 366.92 174.43 349.71 179.98C344.28 181.73 338.67 182.01 333.03 181.78C330.02 181.65 329.53 182.71 330.86 185.31C332.91 189.32 334.46 193.55 335.72 197.87C337.48 203.91 336.58 203.67 343.56 203.73C349.41 203.78 355.3 203.19 361.03 205.1C373.78 209.33 381.21 218.36 384.73 231.01C384.73 250.51 384.73 270.01 384.73 289.51C384.33 290.69 383.94 291.87 383.53 293.05C379.03 305.94 370.05 313.75 356.7 316.42C352.16 317.33 347.47 316.97 342.88 316.72C338.96 316.51 337.26 317.81 336.13 321.69C328.14 349.05 310.78 368.14 284.51 379.14C277.7 381.99 270.49 383.45 263.25 384.75ZM192.66 361.96C211.9 361.96 231.15 361.95 250.39 361.97C254.78 361.97 259.15 361.64 263.43 360.84C294.49 355 315.88 329.62 316.15 297.97C316.36 273.1 316.33 248.23 316.14 223.37C316.04 209.4 312.02 196.57 303.7 185.16C301.89 182.68 299.86 181.73 296.8 181.74C268.18 181.84 239.57 181.82 210.95 181.76C208.24 181.75 205.83 182.35 203.42 183.56C190.82 189.92 178.21 196.26 165.54 202.49C155.76 207.3 147.49 202.1 147.45 191.24C147.42 181.87 147.41 172.5 147.46 163.12C147.47 160.79 146.96 159.28 144.18 159.27C136.81 159.25 129.41 159.02 122.13 160.37C90.92 166.18 69.5 191.73 69.3 223.55C69.15 248.29 69.17 273.04 69.31 297.78C69.38 310 72.32 321.58 79.04 331.92C91.88 351.7 110.37 361.54 133.78 361.89C153.42 362.19 173.04 361.96 192.66 361.96ZM266.42 23.54C243.67 23.54 220.93 23.46 198.18 23.57C181.99 23.64 170.69 34.44 170.61 50.44C170.42 90.31 170.56 130.18 170.51 170.05C170.51 172.96 171.28 173.65 173.98 172.26C181.2 168.54 188.54 165.05 195.73 161.29C199.26 159.44 202.86 158.65 206.86 158.66C249.23 158.74 291.6 158.75 333.96 158.69C350.57 158.67 361.81 147.79 361.91 131.41C362.07 104.54 362 77.67 361.92 50.8C361.9 43.15 359.46 36.34 353.79 30.89C348.22 25.54 341.41 23.57 333.92 23.56C311.42 23.52 288.92 23.54 266.42 23.54ZM46.21 260.58C46.21 250.6 46.21 240.62 46.21 230.64C46.21 228.82 46.22 226.9 43.73 226.86C40.24 226.81 36.71 226.61 33.28 227.1C27.46 227.93 23.7 232.18 23.63 238.22C23.46 252.94 23.43 267.66 23.64 282.38C23.73 288.93 28.29 293.23 34.84 293.66C37.2 293.82 39.59 293.56 41.95 293.75C45.24 294.01 46.32 292.64 46.27 289.4C46.11 279.79 46.21 270.19 46.21 260.58ZM339.29 259.85C339.29 269.83 339.36 279.81 339.25 289.79C339.22 292.69 340.27 293.92 343.2 293.74C345.56 293.59 347.94 293.8 350.31 293.68C357.09 293.34 361.76 289.08 361.86 282.36C362.08 267.64 362.07 252.92 361.86 238.21C361.76 231.48 357.1 227.18 350.36 226.84C348.12 226.73 345.86 226.95 343.63 226.77C340.42 226.52 339.18 227.73 339.24 231.05C339.39 240.64 339.29 250.24 339.29 259.85ZM35.42 113.62C41.07 113.47 46.26 108.12 46.11 102.57C45.96 96.92 40.61 91.73 35.07 91.87C29.42 92.02 24.23 97.37 24.38 102.92C24.52 108.57 29.88 113.76 35.42 113.62Z" fill="white"/>
<path d="M192.79 293.719C200.15 293.719 207.51 293.659 214.87 293.729C221.95 293.799 226.83 298.639 226.77 305.379C226.72 311.929 221.86 316.729 214.98 316.759C200.14 316.829 185.29 316.829 170.45 316.759C163.61 316.729 158.76 311.859 158.74 305.309C158.72 298.729 163.54 293.829 170.34 293.749C177.81 293.649 185.3 293.719 192.79 293.719Z" fill="white"/>
<path d="M124.97 249.011C124.97 245.271 124.91 241.531 124.98 237.791C125.12 231.001 129.99 226.191 136.57 226.231C142.98 226.261 147.89 231.021 147.99 237.581C148.11 245.181 148.11 252.791 147.99 260.391C147.89 266.961 143 271.731 136.6 271.771C130.01 271.811 125.13 267.011 124.98 260.231C124.9 256.491 124.97 252.751 124.97 249.011Z" fill="white"/>
<path d="M260.53 249.181C260.53 252.921 260.61 256.661 260.51 260.401C260.34 266.961 255.5 271.731 249.1 271.771C242.67 271.811 237.63 267.091 237.52 260.591C237.38 252.861 237.38 245.131 237.52 237.411C237.63 230.911 242.66 226.201 249.1 226.231C255.5 226.271 260.35 231.031 260.52 237.591C260.61 241.451 260.53 245.321 260.53 249.181Z" fill="white"/>
<path d="M266.31 80.5406C245.96 80.5406 225.6 80.5906 205.25 80.5206C196.11 80.4906 190.44 71.7806 194.37 63.9106C196.59 59.4706 200.34 57.4406 205.32 57.4506C222.68 57.4906 240.03 57.4606 257.39 57.4606C280.74 57.4606 304.09 57.4206 327.44 57.4906C335.92 57.5206 341.41 65.2006 338.64 72.8806C336.86 77.8206 332.86 80.5106 327 80.5206C306.76 80.5506 286.54 80.5406 266.31 80.5406Z" fill="white"/>
<path d="M266.66 102.471C287.01 102.471 307.37 102.431 327.72 102.501C333.75 102.521 338.46 106.671 339.19 112.271C339.96 118.121 336.68 123.411 331.13 125.041C329.72 125.451 328.18 125.531 326.7 125.531C286.37 125.551 246.03 125.561 205.7 125.541C198.21 125.541 193.25 120.901 193.22 114.061C193.2 107.211 198.16 102.501 205.59 102.481C225.96 102.441 246.31 102.461 266.66 102.471Z" fill="white"/>
</g>
<defs>
<clipPath id="clip0_738_4110">
<rect width="384.75" height="384.75" fill="white"/>
</clipPath>
</defs>
</svg>