<svg width="14" height="14" viewBox="0 0 14 14" fill="none" xmlns="http://www.w3.org/2000/svg">
<path d="M7.00078 8.40078L2.10078 13.3008C1.91745 13.4841 1.68411 13.5758 1.40078 13.5758C1.11745 13.5758 0.884114 13.4841 0.700781 13.3008C0.517448 13.1174 0.425781 12.8841 0.425781 12.6008C0.425781 12.3174 0.517448 12.0841 0.700781 11.9008L5.60078 7.00078L0.700781 2.10078C0.517448 1.91745 0.425781 1.68411 0.425781 1.40078C0.425781 1.11745 0.517448 0.884114 0.700781 0.700781C0.884114 0.517448 1.11745 0.425781 1.40078 0.425781C1.68411 0.425781 1.91745 0.517448 2.10078 0.700781L7.00078 5.60078L11.9008 0.700781C12.0841 0.517448 12.3174 0.425781 12.6008 0.425781C12.8841 0.425781 13.1174 0.517448 13.3008 0.700781C13.4841 0.884114 13.5758 1.11745 13.5758 1.40078C13.5758 1.68411 13.4841 1.91745 13.3008 2.10078L8.40078 7.00078L13.3008 11.9008C13.4841 12.0841 13.5758 12.3174 13.5758 12.6008C13.5758 12.8841 13.4841 13.1174 13.3008 13.3008C13.1174 13.4841 12.8841 13.5758 12.6008 13.5758C12.3174 13.5758 12.0841 13.4841 11.9008 13.3008L7.00078 8.40078Z" fill="#1D1D1E"/>
</svg>
