<svg width="17" height="14" viewBox="0 0 17 14" fill="none" xmlns="http://www.w3.org/2000/svg">
<path d="M2.13919 13.568C1.85028 13.688 1.57582 13.6616 1.3158 13.4888C1.05579 13.3166 0.925781 13.0655 0.925781 12.7354L0.925781 9.38292C0.925781 9.17291 0.983562 8.98541 1.09912 8.82041C1.21469 8.65541 1.37359 8.55041 1.57582 8.50541L7.85953 6.88539L1.57582 5.26538C1.37359 5.22038 1.21469 5.11538 1.09912 4.95037C0.983562 4.78537 0.925781 4.59787 0.925781 4.38787L0.925781 1.03534C0.925781 0.705334 1.05579 0.453932 1.3158 0.28113C1.57582 0.108928 1.85028 0.0828277 2.13919 0.202829L15.4866 6.05288C15.8478 6.21789 16.0283 6.49539 16.0283 6.88539C16.0283 7.2754 15.8478 7.5529 15.4866 7.7179L2.13919 13.568Z" fill="#999999"/>
</svg>
