<svg width="32" height="32" viewBox="0 0 32 32" fill="none" xmlns="http://www.w3.org/2000/svg">
<path d="M16.0002 21.3334C15.6224 21.3334 15.3059 21.2054 15.0508 20.9494C14.7948 20.6942 14.6668 20.3778 14.6668 20V10.4667L12.1668 12.9667C11.9002 13.2334 11.5891 13.3667 11.2335 13.3667C10.8779 13.3667 10.5557 13.2222 10.2668 12.9334C10.0002 12.6667 9.87261 12.3498 9.88416 11.9827C9.89483 11.6165 10.0224 11.3111 10.2668 11.0667L15.0668 6.26669C15.2002 6.13336 15.3446 6.03869 15.5002 5.98269C15.6557 5.92758 15.8224 5.90002 16.0002 5.90002C16.1779 5.90002 16.3446 5.92758 16.5002 5.98269C16.6557 6.03869 16.8002 6.13336 16.9335 6.26669L21.7335 11.0667C22.0002 11.3334 22.1277 11.6498 22.1162 12.016C22.1055 12.3831 21.9779 12.6889 21.7335 12.9334C21.4668 13.2 21.1504 13.3387 20.7842 13.3494C20.4171 13.3609 20.1002 13.2334 19.8335 12.9667L17.3335 10.4667V20C17.3335 20.3778 17.2059 20.6942 16.9508 20.9494C16.6948 21.2054 16.3779 21.3334 16.0002 21.3334ZM8.00016 26.6667C7.26683 26.6667 6.63927 26.4058 6.1175 25.884C5.59483 25.3614 5.3335 24.7334 5.3335 24V21.3334C5.3335 20.9556 5.46105 20.6387 5.71616 20.3827C5.97216 20.1276 6.28905 20 6.66683 20C7.04461 20 7.3615 20.1276 7.6175 20.3827C7.87261 20.6387 8.00016 20.9556 8.00016 21.3334V24H24.0002V21.3334C24.0002 20.9556 24.1282 20.6387 24.3842 20.3827C24.6393 20.1276 24.9557 20 25.3335 20C25.7113 20 26.0277 20.1276 26.2828 20.3827C26.5388 20.6387 26.6668 20.9556 26.6668 21.3334V24C26.6668 24.7334 26.4059 25.3614 25.8842 25.884C25.3615 26.4058 24.7335 26.6667 24.0002 26.6667H8.00016Z" fill="white"/>
</svg>